<svg width="126" height="28" viewBox="0 0 126 28" fill="none" xmlns="http://www.w3.org/2000/svg">
<path d="M82.6283 23.6277C81.735 23.6277 81.0117 22.8796 81.0117 21.9556C81.0117 17.8601 77.7889 14.5267 73.8292 14.5267C69.8697 14.5267 66.6467 17.8601 66.6467 21.9556C66.6467 22.8796 65.9236 23.6277 65.0304 23.6277C64.1369 23.6277 63.4138 22.8796 63.4138 21.9556C63.4138 16.0156 68.0863 11.1826 73.8292 11.1826C79.5721 11.1826 84.2448 16.0156 84.2448 21.9556C84.2448 22.8796 83.5215 23.6277 82.6283 23.6277Z" fill="white"/>
<path d="M107.489 23.6277C107.071 23.6277 106.652 23.4641 106.332 23.1385L97.4257 14.0377C96.7868 13.3848 96.7868 12.3253 97.4257 11.6723C98.0647 11.0194 99.0999 11.0194 99.7405 11.6723L107.489 19.5904L115.238 11.6723C115.876 11.0194 116.912 11.0194 117.552 11.6723C118.191 12.3253 118.191 13.3848 117.552 14.0377L108.647 23.1385C108.326 23.4641 107.908 23.6277 107.489 23.6277Z" fill="white"/>
<path d="M90.7225 23.6277C89.8099 23.6277 89.0713 22.8799 89.0713 21.9561V12.5895C89.0713 11.6657 89.8099 10.9178 90.7225 10.9178C91.635 10.9178 92.3736 11.6657 92.3736 12.5895V21.9561C92.3736 22.8799 91.635 23.6277 90.7225 23.6277Z" fill="white"/>
<path d="M90.8509 8.43849C92.0528 8.43849 93.0271 7.42003 93.0271 6.1637C93.0271 4.90737 92.0528 3.88892 90.8509 3.88892C89.6491 3.88892 88.6748 4.90737 88.6748 6.1637C88.6748 7.42003 89.6491 8.43849 90.8509 8.43849Z" fill="white"/>
<path d="M120.281 23.6036C121.482 23.6036 122.457 22.5852 122.457 21.3289C122.457 20.0725 121.482 19.0541 120.281 19.0541C119.079 19.0541 118.104 20.0725 118.104 21.3289C118.104 22.5852 119.079 23.6036 120.281 23.6036Z" fill="white"/>
<path d="M53.2094 24.1583C52.3429 24.1583 51.4762 23.9821 50.6489 23.6301C48.9635 22.9134 47.6448 21.5498 46.9355 19.7911C46.2265 18.0323 46.2129 16.0922 46.898 14.3227C47.5797 12.5549 48.8796 11.1717 50.5548 10.4279C52.2298 9.6842 54.0813 9.66984 55.7684 10.3884C57.4537 11.1052 58.7725 12.4687 59.4817 14.2274C59.8139 15.0502 59.4456 15.9987 58.6628 16.3455L50.6797 19.8863C51.0051 20.2006 51.3854 20.4541 51.8068 20.6337C52.7299 21.0271 53.7439 21.018 54.6602 20.612C55.5081 20.2365 56.1914 19.5486 56.5818 18.6755C56.9433 17.8671 57.8614 17.5204 58.6322 17.8994C59.4029 18.2785 59.7335 19.2414 59.372 20.0498C58.6579 21.645 57.4092 22.9026 55.8608 23.5907C55.008 23.9696 54.1087 24.1583 53.2094 24.1583ZM51.7554 13.4065C50.8391 13.8143 50.1266 14.5706 49.7515 15.5389C49.5801 15.9808 49.4893 16.4443 49.4773 16.9078L55.7358 14.1322C55.4104 13.8179 55.0285 13.5717 54.6088 13.3849C54.0983 13.1586 52.997 12.8531 51.7554 13.4065Z" fill="white"/>
<path d="M41.4528 11.1586C40.5492 11.1586 39.8178 11.9066 39.8178 12.8306C39.8178 16.9261 36.5582 20.2595 32.5535 20.2595C28.5486 20.2595 25.2889 16.9261 25.2889 12.8306C25.2889 11.9066 24.5575 11.1586 23.6539 11.1586C22.7505 11.1586 22.0189 11.9066 22.0189 12.8306C22.0189 16.9261 18.7594 20.2595 14.7546 20.2595C10.7498 20.2595 7.49016 16.9261 7.49016 12.8306C7.49016 11.9066 6.75873 11.1586 5.85518 11.1586C4.95164 11.1586 4.22021 11.9066 4.22021 12.8306C4.22021 18.7706 8.94614 23.6037 14.7546 23.6037C18.4961 23.6037 21.7849 21.5973 23.6539 18.5841C25.5231 21.5973 28.8136 23.6037 32.5535 23.6037C38.3619 23.6037 43.0878 18.7706 43.0878 12.8306C43.0878 11.9066 42.3562 11.1586 41.4528 11.1586Z" fill="white"/>
</svg>
